<?xml version="1.0" standalone="no"?>
<!DOCTYPE svg PUBLIC "-//W3C//DTD SVG 20010904//EN"
 "http://www.w3.org/TR/2001/REC-SVG-20010904/DTD/svg10.dtd">
<svg version="1.0" xmlns="http://www.w3.org/2000/svg"
 width="70.000000pt" height="70.000000pt" viewBox="0 0 70.000000 70.000000"
 preserveAspectRatio="xMidYMid meet">
<metadata>
Created by potrace 1.14, written by Peter Selinger 2001-2017
</metadata>
<g transform="translate(0.000000,70.000000) scale(0.100000,-0.100000)"
fill="#000000" stroke="none">
<path d="M191 679 c-33 -13 -74 -41 -101 -68 -149 -149 -103 -396 89 -485 65
-29 178 -29 244 1 l48 22 70 -71 c50 -50 77 -70 95 -70 29 0 39 8 48 39 6 17
-7 35 -68 96 l-74 75 27 54 c22 44 26 66 26 133 -1 67 -5 88 -27 131 -51 97
-139 153 -252 160 -56 3 -82 0 -125 -17z m221 -23 c172 -82 220 -295 98 -437
-57 -67 -118 -94 -210 -94 -84 1 -139 22 -196 76 -74 71 -102 192 -68 291 26
72 104 151 170 172 60 19 156 15 206 -8z"/>
<path d="M321 561 c-5 -9 -12 -31 -16 -49 -5 -24 -13 -34 -33 -38 -15 -3 -45
-11 -67 -17 -22 -6 -54 -10 -72 -8 -41 3 -71 -35 -53 -69 6 -12 14 -33 16 -47
7 -38 21 -59 51 -81 44 -30 113 -49 168 -45 91 6 185 70 185 126 0 8 6 27 14
43 24 45 -13 85 -64 69 -12 -4 -26 -2 -33 3 -12 10 -85 28 -99 24 -4 -1 -1 17
5 39 7 22 15 40 20 40 4 -1 16 -1 27 -1 10 0 30 -12 44 -26 19 -21 30 -25 51
-20 22 6 26 11 23 39 -3 27 -8 33 -32 35 -16 2 -32 -1 -36 -8 -5 -8 -19 -8
-49 -1 -35 7 -43 6 -50 -8z m87 -128 c65 -31 90 -93 56 -141 -55 -79 -247 -88
-321 -16 -57 55 -24 133 69 165 60 22 141 18 196 -8z"/>
<path d="M212 388 c-25 -25 0 -64 32 -52 21 8 21 50 0 58 -20 8 -18 8 -32 -6z"/>
<path d="M343 380 c-17 -27 9 -55 38 -40 22 12 25 30 7 48 -17 17 -31 15 -45
-8z"/>
<path d="M233 273 c17 -17 67 -24 102 -15 54 15 36 27 -40 27 -58 0 -72 -3
-62 -12z"/>
</g>
</svg>
